<?xml version="1.0" standalone="no"?>
<!DOCTYPE svg PUBLIC "-//W3C//DTD SVG 20010904//EN"
 "http://www.w3.org/TR/2001/REC-SVG-20010904/DTD/svg10.dtd">
<svg version="1.0" xmlns="http://www.w3.org/2000/svg"
 width="120.000000pt" height="120.000000pt" viewBox="0 0 120.000000 120.000000"
 preserveAspectRatio="xMidYMid meet">
<metadata>
Created by potrace 1.11, written by Peter Selinger 2001-2013
</metadata>
<g transform="translate(0.000000,120.000000) scale(0.100000,-0.100000)"
fill="#000000" stroke="none">
<path d="M462 995 c-17 -8 -41 -30 -53 -49 -11 -19 -29 -38 -39 -41 -32 -10
-62 -62 -62 -107 1 -50 20 -80 66 -102 l36 -17 0 -73 0 -74 53 -14 c67 -17
230 -16 282 3 l40 14 3 72 c3 71 3 73 37 89 44 20 68 58 68 105 0 41 -32 94
-63 104 -10 3 -28 22 -39 41 -29 49 -104 77 -155 58 -33 -12 -14 -24 38 -24
44 0 58 -4 80 -26 29 -30 34 -69 11 -101 -9 -12 -11 -24 -6 -27 12 -8 41 21
41 40 0 23 27 16 49 -12 41 -52 15 -121 -54 -144 -28 -9 -34 -17 -37 -43 -4
-39 -23 -45 -158 -45 -134 0 -154 6 -158 44 -2 24 -10 33 -37 43 -69 25 -95
93 -54 145 27 34 40 33 61 -5 10 -17 22 -27 28 -24 7 4 5 14 -5 28 -23 32 -18
71 11 101 52 51 162 27 178 -39 7 -28 26 -34 26 -7 0 31 -24 65 -60 83 -41 22
-83 24 -128 4z m138 -400 c47 0 102 3 123 7 36 7 37 6 37 -22 0 -39 -23 -45
-160 -45 -137 0 -160 6 -160 45 0 28 1 29 38 22 20 -4 75 -7 122 -7z"/>
<path d="M490 932 c0 -14 69 -76 77 -69 3 4 -9 23 -27 42 -33 34 -50 43 -50
27z"/>
<path d="M541 923 c19 -25 32 -33 42 -26 11 7 -22 43 -41 43 -12 0 -12 -3 -1
-17z"/>
<path d="M476 901 c-6 -10 32 -47 39 -39 9 8 -5 36 -20 42 -8 3 -17 1 -19 -3z"/>
<path d="M288 417 c-8 -7 -27 -29 -43 -49 -15 -21 -31 -38 -36 -38 -4 0 -22
20 -40 45 -21 30 -39 45 -53 44 -12 0 -15 -3 -8 -6 15 -6 17 -143 2 -143 -5 0
-10 -4 -10 -10 0 -5 11 -10 24 -10 14 0 28 5 31 10 3 6 1 10 -4 10 -7 0 -11
22 -11 53 l1 52 34 -39 35 -39 35 39 36 39 -4 -62 c-3 -60 -2 -63 20 -63 13 0
23 5 23 10 0 6 -4 10 -10 10 -15 0 -13 137 2 142 8 3 9 6 1 11 -5 3 -17 1 -25
-6z"/>
<path d="M835 381 c-3 -5 -1 -12 5 -16 5 -3 10 1 10 9 0 18 -6 21 -15 7z"/>
<path d="M330 340 c0 -5 3 -10 8 -10 4 0 16 -15 26 -34 21 -39 15 -86 -10 -86
-8 0 -12 -4 -9 -10 11 -18 45 -11 45 9 0 20 49 114 62 119 18 8 6 23 -14 20
-13 -2 -22 -9 -20 -16 1 -7 -4 -22 -12 -34 l-14 -20 -11 20 c-6 11 -8 28 -5
36 5 12 0 16 -20 16 -14 0 -26 -4 -26 -10z"/>
<path d="M540 339 c0 -5 5 -9 10 -9 6 0 10 -13 10 -30 0 -16 -4 -30 -10 -30
-5 0 -10 -4 -10 -10 0 -5 11 -10 24 -10 23 0 24 3 19 35 -4 26 -2 36 11 41 27
10 18 20 -19 21 -19 1 -35 -3 -35 -8z"/>
<path d="M636 334 c-9 -8 -16 -24 -16 -34 0 -40 41 -59 85 -40 22 9 8 14 -32
10 -13 -1 -23 3 -23 9 0 6 6 11 13 11 7 0 22 6 32 14 16 12 17 16 6 30 -17 20
-45 21 -65 0z m44 -13 c0 -5 -9 -11 -20 -14 -20 -5 -26 3 -13 16 9 10 33 8 33
-2z"/>
<path d="M735 326 c-23 -34 -3 -76 37 -76 15 0 28 5 28 10 0 6 -8 10 -19 10
-28 0 -47 26 -31 45 15 18 37 20 43 3 2 -7 8 -10 12 -6 14 14 -5 38 -29 38
-16 0 -32 -9 -41 -24z"/>
<path d="M825 300 c0 -45 2 -50 23 -50 12 0 22 5 22 10 0 6 -4 10 -10 10 -5 0
-10 18 -10 40 0 25 -5 40 -12 40 -9 0 -13 -17 -13 -50z"/>
<path d="M880 339 c0 -4 4 -10 8 -13 10 -6 8 -93 -3 -118 -6 -15 -2 -18 19
-18 14 0 26 5 26 10 0 6 -4 10 -10 10 -5 0 -10 10 -10 23 0 18 5 22 32 22 24
0 35 6 44 23 l11 23 17 -26 c17 -25 59 -35 71 -15 4 6 -5 10 -19 10 -35 0 -33
16 4 29 32 11 37 20 18 39 -18 18 -55 14 -71 -8 -14 -20 -14 -20 -32 0 -12 14
-30 19 -61 18 -24 0 -44 -4 -44 -9z m90 -24 c10 -12 10 -18 0 -30 -26 -32 -68
-8 -54 30 4 8 14 15 24 15 10 0 23 -7 30 -15z m86 0 c-26 -19 -42 -19 -26 0 7
8 20 15 29 15 13 -1 13 -3 -3 -15z"/>
</g>
</svg>
